<svg xmlns="http://www.w3.org/2000/svg">
    <symbol id="uiUx" viewBox="0 0 24 24">
      <path
        opacity="0.4"
        d="M3.89177 20.1087C5.28301 21.5 7.52218 21.5 12.0005 21.5C16.4789 21.5 18.718 21.5 20.1093 20.1087C21.5005 18.7175 21.5005 16.4783 21.5005 12C21.5005 10.1509 21.403 10.1835 21.305 9H2.50089C2.40296 10.1835 2.50053 10.1509 2.50053 12C2.50053 16.4783 2.50053 18.7175 3.89177 20.1087Z"
        fill="currentColor"
      />
      <path
        fill-rule="evenodd"
        clip-rule="evenodd"
        d="M8.25 20.4551C7.67215 20.4301 7.1655 20.3911 6.71351 20.3303C5.51828 20.1696 4.93221 19.882 4.52513 19.4749C4.11805 19.0678 3.83038 18.4817 3.66968 17.2865C3.50319 16.0481 3.5 14.3994 3.5 12C3.5 11.1636 3.50039 10.4184 3.50794 9.75H8.25V20.4551ZM9.75 20.4921C10.4184 20.4996 11.1636 20.5 12 20.5C14.3994 20.5 16.0481 20.4968 17.2865 20.3303C18.4817 20.1696 19.0678 19.882 19.4749 19.4749C19.882 19.0678 20.1696 18.4817 20.3303 17.2865C20.4968 16.0481 20.5 14.3994 20.5 12C20.5 11.1636 20.4996 10.4184 20.4921 9.75H9.75V20.4921ZM20.4551 8.25H9H3.54486C3.5699 7.67215 3.60891 7.1655 3.66968 6.71351C3.83038 5.51828 4.11805 4.93221 4.52513 4.52513C4.93221 4.11805 5.51828 3.83038 6.71351 3.66968C7.9519 3.50319 9.60057 3.5 12 3.5C14.3994 3.5 16.0481 3.50319 17.2865 3.66968C18.4817 3.83038 19.0678 4.11805 19.4749 4.52513C19.882 4.93221 20.1696 5.51828 20.3303 6.71351C20.3911 7.1655 20.4301 7.67215 20.4551 8.25ZM2 12C2 7.28595 2 4.92893 3.46447 3.46447C4.92893 2 7.28595 2 12 2C16.714 2 19.0711 2 20.5355 3.46447C22 4.92893 22 7.28595 22 12C22 16.714 22 19.0711 20.5355 20.5355C19.0711 22 16.714 22 12 22C7.28595 22 4.92893 22 3.46447 20.5355C2 19.0711 2 16.714 2 12ZM6.24981 6C6.24981 5.58579 6.5856 5.25 6.99981 5.25H7.00879C7.423 5.25 7.75879 5.58579 7.75879 6C7.75879 6.41421 7.423 6.75 7.00879 6.75H6.99981C6.5856 6.75 6.24981 6.41421 6.24981 6ZM10.2498 6C10.2498 5.58579 10.5856 5.25 10.9998 5.25H11.0088C11.423 5.25 11.7588 5.58579 11.7588 6C11.7588 6.41421 11.423 6.75 11.0088 6.75H10.9998C10.5856 6.75 10.2498 6.41421 10.2498 6ZM13 16.25C12.5858 16.25 12.25 16.5858 12.25 17C12.25 17.4142 12.5858 17.75 13 17.75H15C15.4142 17.75 15.75 17.4142 15.75 17C15.75 16.5858 15.4142 16.25 15 16.25H13ZM12.25 13C12.25 12.5858 12.5858 12.25 13 12.25H17C17.4142 12.25 17.75 12.5858 17.75 13C17.75 13.4142 17.4142 13.75 17 13.75H13C12.5858 13.75 12.25 13.4142 12.25 13Z"
        fill="currentColor"
      />
    </symbol>
    <symbol id="grafDesign" viewBox="0 0 24 24">
      <path
        opacity="0.4"
        d="M13.2852 19.3647L5.82243 20.7506C4.39103 21.0164 3.67534 21.1493 3.26303 20.737C2.85072 20.3246 2.98362 19.6089 3.24943 18.1774L4.63523 10.7143C4.85745 9.51762 4.96856 8.91925 5.36302 8.5577C5.75749 8.19616 6.47889 8.1256 7.9217 7.98448C9.31227 7.84847 10.6283 7.37177 12 6L18 12.0005C16.6283 13.3723 16.1513 14.6874 16.0151 16.0781C15.8738 17.5211 15.8031 18.2426 15.4416 18.637C15.0801 19.0314 14.4818 19.1425 13.2852 19.3647Z"
        fill="currentColor"
      />
      <path
        fill-rule="evenodd"
        clip-rule="evenodd"
        d="M12.9533 5.89262L18.1074 11.0467C18.17 11.0091 18.2328 10.9716 18.2949 10.9345L18.2953 10.9343C18.3725 10.8882 18.4488 10.8427 18.5225 10.7981C18.8465 10.6023 19.1541 10.4066 19.4235 10.1937C19.9729 9.7595 20.239 9.35386 20.239 8.8935V8.88758L20.239 8.88758C20.2424 8.46257 20.051 8.0806 19.6282 7.61306C19.4155 7.37796 19.1637 7.14217 18.8748 6.87825L18.7506 6.76494C18.5018 6.53833 18.2312 6.29185 17.9697 6.03033C17.7106 5.77125 17.4661 5.50359 17.2411 5.25726L17.2411 5.25721L17.2411 5.25719L17.1225 5.12752C16.8588 4.83972 16.6229 4.58874 16.3877 4.37666C15.9203 3.95509 15.5357 3.76098 15.1065 3.76098C14.6461 3.76098 14.2405 4.02713 13.8063 4.57645C13.5934 4.84591 13.3977 5.15344 13.2019 5.47753C13.1573 5.55135 13.1117 5.6277 13.0655 5.70505L13.065 5.70594L13.0648 5.70633C13.0279 5.76805 12.9907 5.83041 12.9533 5.89262ZM12.6295 3.64635C13.1689 2.96389 13.9604 2.26098 15.1065 2.26098C16.0708 2.26098 16.8019 2.73031 17.3923 3.26272C17.686 3.52763 17.9646 3.82627 18.2284 4.11411L18.3532 4.2506C18.5788 4.49744 18.7973 4.73665 19.0303 4.96967C19.2651 5.20441 19.5067 5.42461 19.7564 5.65214L19.8866 5.77085C20.1751 6.03442 20.4749 6.3131 20.7407 6.60691C21.274 7.19663 21.7457 7.92948 21.739 8.89655C21.7378 10.041 21.0355 10.8316 20.3536 11.3705C20.0072 11.6443 19.6332 11.8795 19.2983 12.0819C19.205 12.1383 19.1163 12.1912 19.032 12.2416C18.8243 12.3656 18.6426 12.4741 18.4802 12.5811C17.7836 13.2831 17.3645 13.8258 17.113 14.3395C16.8642 14.8481 16.7584 15.3723 16.7651 16.0709C16.77 16.5868 16.7115 17.1818 16.6014 17.7088C16.5462 17.9729 16.475 18.2347 16.3853 18.4688C16.3004 18.6904 16.178 18.9435 15.9945 19.1438C15.6869 19.4793 15.3043 19.6583 14.895 19.7829C14.5101 19.9001 14.0263 19.9899 13.4621 20.0947L13.4221 20.1021L5.95937 21.488L5.9041 21.4983L5.90405 21.4983C5.23578 21.6224 4.65318 21.7306 4.18787 21.7476C3.69284 21.7656 3.15494 21.6896 2.73271 21.2673L2.73264 21.2673C2.31047 20.845 2.2344 20.3071 2.25243 19.8121C2.26938 19.3467 2.37761 18.7641 2.50176 18.0958L2.50177 18.0958L2.51204 18.0405L3.24943 18.1774L2.51204 18.0405L3.89784 10.5774L3.89784 10.5774L3.90528 10.5373C4.01001 9.97316 4.09983 9.48933 4.21706 9.10435C4.3417 8.69505 4.52066 8.3124 4.85626 8.00481L4.85627 8.00479C5.05758 7.82029 5.31199 7.69843 5.53363 7.61436C5.76779 7.52554 6.02948 7.45542 6.29298 7.40101C6.8191 7.29237 7.41101 7.23448 7.9217 7.23448C8.62536 7.23448 9.15227 7.12819 9.66228 6.88023C10.1757 6.63063 10.7178 6.21539 11.418 5.52116C11.5253 5.35849 11.6341 5.17627 11.7584 4.96806L11.7584 4.96803C11.8088 4.88366 11.8617 4.79503 11.9181 4.7017C12.1205 4.36683 12.3557 3.99278 12.6295 3.64635ZM11.4697 6.53033L11.988 7.04867C11.4218 7.56203 10.8844 7.95396 10.3181 8.22925C9.55858 8.59853 8.79634 8.73448 7.9217 8.73448C7.5107 8.73448 7.0205 8.78243 6.59632 8.87002C6.38467 8.91372 6.20416 8.9643 6.0656 9.01686C5.93324 9.06706 5.87936 9.10412 5.87079 9.11002C5.86957 9.11086 5.86927 9.11107 5.86977 9.11061C5.81091 9.16456 5.73709 9.26189 5.65201 9.5413C5.56228 9.83597 5.4869 10.2359 5.37263 10.8512L5.37262 10.8512L3.98683 18.3143C3.93097 18.6151 3.88368 18.8716 3.84639 19.093L8.52674 14.4126C8.28057 14.0164 8.12327 13.5767 8.04916 13.1202C7.98279 12.7113 8.26043 12.3261 8.66929 12.2597C9.07815 12.1933 9.4634 12.471 9.52978 12.8798C9.59789 13.2994 9.77587 13.6626 10.0566 13.9433L10.0566 13.9433C10.3374 14.2241 10.7006 14.4021 11.1201 14.4702C11.529 14.5365 11.8067 14.9218 11.7403 15.3306C11.674 15.7395 11.2887 16.0172 10.8799 15.9508C10.4233 15.8767 9.98359 15.7194 9.58741 15.4733L4.90704 20.1536C5.12835 20.1163 5.38476 20.0691 5.68549 20.0132L13.1483 18.6273C13.7636 18.513 14.1635 18.4377 14.4581 18.3479C14.7375 18.2629 14.8348 18.1891 14.8887 18.1302C14.8884 18.1305 14.8886 18.1303 14.8892 18.1294C14.8946 18.1218 14.9327 18.0675 14.9846 17.9321C15.0377 17.7934 15.089 17.613 15.1331 17.402C15.2215 16.9786 15.269 16.4913 15.2651 16.0853C15.2567 15.2058 15.3934 14.441 15.7657 13.6801C16.0427 13.1142 16.4373 12.5772 16.951 12.0121L17.4696 12.5308L17.4699 12.5306C17.4698 12.5305 17.4697 12.5304 17.4697 12.5303L16.9512 12.0119C16.9511 12.0119 16.9511 12.012 16.951 12.0121L11.988 7.04867C11.988 7.04867 11.988 7.04866 11.988 7.04865L11.4697 6.53033ZM3.46971 20.5304L3.26303 20.737L3.46967 20.5303C3.46968 20.5303 3.46969 20.5304 3.46971 20.5304ZM5.86977 9.11061L5.36415 8.55893L5.86978 9.11059L5.86977 9.11061Z"
        fill="currentColor"
      />
    </symbol>
    <symbol id="motionDesign" viewBox="0 0 24 24">
      <path
        opacity="0.4"
        d="M6 7C4.89543 7 4 6.10457 4 5C4 3.89543 4.89543 3 6 3C7.10457 3 8 3.89543 8 5C8 6.10457 7.10457 7 6 7Z"
        fill="currentColor"
      />
      <path
        fill-rule="evenodd"
        clip-rule="evenodd"
        d="M7.25 5C7.25 4.30964 6.69036 3.75 6 3.75C5.30964 3.75 4.75 4.30964 4.75 5C4.75 5.69036 5.30964 6.25 6 6.25C6.69036 6.25 7.25 5.69036 7.25 5ZM6 2.25C7.51878 2.25 8.75 3.48122 8.75 5C8.75 6.51878 7.51878 7.75 6 7.75C4.48122 7.75 3.25 6.51878 3.25 5C3.25 3.48122 4.48122 2.25 6 2.25ZM9.622 9.58093C9.39055 9.23741 8.92445 9.14656 8.58093 9.378C8.23741 9.60945 8.14656 10.0755 8.378 10.4191C10.0501 12.9008 10.8954 15.2528 12.2694 21.1697C12.341 21.4776 12.5979 21.7077 12.9119 21.7448C13.2259 21.7819 13.5294 21.6182 13.6708 21.3354C14.895 18.8871 16.0487 17.695 17.0086 17.2403C17.8909 16.8223 18.7209 16.9781 19.55 17.6C19.8814 17.8485 20.3515 17.7814 20.6 17.45C20.8485 17.1186 20.7814 16.6485 20.45 16.4C19.2791 15.5219 17.8591 15.1777 16.3664 15.8847C15.2997 16.39 14.272 17.3997 13.2842 18.9592C12.1381 14.305 11.2512 11.9991 9.622 9.58093Z"
        fill="currentColor"
      />
    </symbol>
    <symbol id="photoRetouch" viewBox="0 0 24 24">
        <path
        opacity="0.4"
        fill-rule="evenodd"
        clip-rule="evenodd"
        d="M20.3519 2.12349C19.7937 1.84536 19.1147 2.05196 18.8076 2.59338L15 8.41396L17.5978 10L20.876 3.69028C21.1655 3.1134 20.9308 2.41193 20.3519 2.12349ZM6 4L6.22108 4.59745C6.51097 5.38087 6.65592 5.77259 6.94167 6.05833C7.22741 6.34408 7.61913 6.48903 8.40255 6.77892L9 7L8.40255 7.22108C7.61913 7.51097 7.22741 7.65592 6.94167 7.94167C6.65592 8.22741 6.51097 8.61913 6.22108 9.40255L6 10L5.77892 9.40255C5.48903 8.61913 5.34408 8.22741 5.05833 7.94167C4.77259 7.65592 4.38087 7.51097 3.59745 7.22108L3 7L3.59745 6.77892C4.38087 6.48903 4.77259 6.34408 5.05833 6.05833C5.34408 5.77259 5.48903 5.38087 5.77892 4.59745L6 4ZM15 15L12 13C7.52052 15.7458 4.88172 14.7808 3 13.8508C3 15.9297 3.68122 17.6692 4.69609 19C6.16762 20.9296 8.34064 22 10.1556 22C13.4267 21.1851 14.781 17.0373 15 15Z"
        fill="currentColor"
      />
      <path
        fill-rule="evenodd"
        clip-rule="evenodd"
        d="M20.6864 1.4522C19.7805 1.00085 18.6789 1.32834 18.1685 2.20028L14.3724 8.00338L11.4655 12.447C9.38694 13.6945 7.78852 14.0662 6.5332 14.0539C5.24674 14.0412 4.23787 13.626 3.3323 13.1784C3.09983 13.0635 2.8245 13.0769 2.60423 13.2137C2.38396 13.3506 2.25 13.5915 2.25 13.8508C2.25 16.1009 2.98943 17.9989 4.09972 19.4548C5.692 21.5427 8.07393 22.75 10.1556 22.75C10.2167 22.75 10.2776 22.7425 10.3369 22.7278C12.2531 22.2504 13.55 20.8116 14.3778 19.3229C15.1723 17.8941 15.5906 16.3249 15.7289 15.2237L18.2633 10.3458L17.6366 10.0202L18.2633 10.3458L21.5415 4.03606L21.5416 4.03609L21.5463 4.02668C22.0227 3.07743 21.6354 1.92504 20.6864 1.4522ZM6.51848 15.5538C8.04692 15.5688 9.83216 15.1266 11.9774 13.8863L14.1924 15.363C14.0383 16.2748 13.6808 17.4898 13.0669 18.5939C12.3609 19.8635 11.3738 20.8886 10.0634 21.2489C8.96114 21.2229 7.66251 20.7344 6.52757 19.8168C6.7457 19.8044 6.97137 19.7849 7.20183 19.7571C8.26995 19.6281 9.49548 19.3127 10.5598 18.6318C10.9087 18.4085 11.0106 17.9447 10.7874 17.5958C10.5641 17.2469 10.1003 17.145 9.75139 17.3682C8.94019 17.8873 7.95516 18.1552 7.022 18.2679C6.2679 18.359 5.5833 18.3444 5.11135 18.2973C4.48123 17.3961 4.01503 16.3034 3.83339 15.0371C4.59298 15.3219 5.47957 15.5436 6.51848 15.5538ZM16.6095 10.2754L14.7201 13.912L13.0347 12.7884L15.2297 9.43291L16.6095 10.2754ZM17.3027 8.94113L16.0512 8.17703L19.4352 3.00396C19.4439 2.9907 19.4522 2.97718 19.46 2.96341C19.5698 2.76977 19.8148 2.69383 20.0174 2.79478L20.3509 2.12559L20.0174 2.79478C20.225 2.89822 20.3074 3.14649 20.2074 3.35035L17.3027 8.94113ZM6.70339 3.73972C6.59448 3.4454 6.31383 3.25 6 3.25C5.68617 3.25 5.40552 3.4454 5.29661 3.73972L4.80549 5.06697C4.67888 5.40912 4.40912 5.67888 4.06697 5.80549L2.73972 6.29661C2.4454 6.40552 2.25 6.68617 2.25 7C2.25 7.31383 2.4454 7.59448 2.73972 7.70339L4.06697 8.19451C4.40912 8.32112 4.67888 8.59088 4.80549 8.93303L5.29661 10.2603C5.40552 10.5546 5.68617 10.75 6 10.75C6.31383 10.75 6.59448 10.5546 6.70339 10.2603L7.19451 8.93303C7.32112 8.59088 7.59088 8.32112 7.93303 8.19451L9.26028 7.70339C9.5546 7.59448 9.75 7.31383 9.75 7C9.75 6.68617 9.5546 6.40552 9.26028 6.29661L7.93303 5.80549C7.59088 5.67888 7.32112 5.40912 7.19451 5.06697L6.70339 3.73972ZM5.03343 7C5.43174 6.76436 5.76436 6.43174 6 6.03343C6.23564 6.43174 6.56826 6.76436 6.96657 7C6.56826 7.23564 6.23564 7.56826 6 7.96657C5.76436 7.56826 5.43174 7.23564 5.03343 7Z"
        fill="currentColor"
      />
    </symbol>
    <symbol id="grid" viewBox="0 0 24 24">
      <path
        opacity="0.4"
        fill-rule="evenodd"
        clip-rule="evenodd"
        d="M2.34673 3.12353C2 3.68934 2 4.45956 2 6C2 7.54044 2 8.31066 2.34673 8.87647C2.54074 9.19307 2.80693 9.45926 3.12353 9.65327C3.68934 10 4.45956 10 6 10C7.54044 10 8.31066 10 8.87647 9.65327C9.19307 9.45926 9.45926 9.19307 9.65327 8.87647C10 8.31066 10 7.54044 10 6C10 4.45956 10 3.68934 9.65327 3.12353C9.45926 2.80693 9.19307 2.54074 8.87647 2.34673C8.31066 2 7.54044 2 6 2C4.45956 2 3.68934 2 3.12353 2.34673C2.80693 2.54074 2.54074 2.80693 2.34673 3.12353ZM14.3467 15.1235C14 15.6893 14 16.4596 14 18C14 19.5404 14 20.3107 14.3467 20.8765C14.5407 21.1931 14.8069 21.4593 15.1235 21.6533C15.6893 22 16.4596 22 18 22C19.5404 22 20.3107 22 20.8765 21.6533C21.1931 21.4593 21.4593 21.1931 21.6533 20.8765C22 20.3107 22 19.5404 22 18C22 16.4596 22 15.6893 21.6533 15.1235C21.4593 14.8069 21.1931 14.5407 20.8765 14.3467C20.3107 14 19.5404 14 18 14C16.4596 14 15.6893 14 15.1235 14.3467C14.8069 14.5407 14.5407 14.8069 14.3467 15.1235Z"
        fill="currentColor"
      />
      <path
        fill-rule="evenodd"
        clip-rule="evenodd"
        d="M17.9686 1.25H18H18.0314C18.7048 1.24999 19.2555 1.24998 19.7031 1.28655C20.1663 1.3244 20.5847 1.40514 20.9755 1.60423C21.587 1.91582 22.0842 2.413 22.3958 3.02453C22.5949 3.41527 22.6756 3.83367 22.7134 4.29693C22.75 4.74449 22.75 5.29519 22.75 5.96856V6V6.03144C22.75 6.70481 22.75 7.25551 22.7134 7.70307C22.6756 8.16633 22.5949 8.58473 22.3958 8.97547C22.0842 9.587 21.587 10.0842 20.9755 10.3958C20.5847 10.5949 20.1663 10.6756 19.7031 10.7134C19.2555 10.75 18.7048 10.75 18.0315 10.75H18.0314H18H17.9686H17.9685C17.2952 10.75 16.7445 10.75 16.2969 10.7134C15.8337 10.6756 15.4153 10.5949 15.0245 10.3958C14.413 10.0842 13.9158 9.587 13.6042 8.97547C13.4051 8.58473 13.3244 8.16633 13.2866 7.70307C13.25 7.25551 13.25 6.70481 13.25 6.03145V6.03142V6V5.96858V5.96855C13.25 5.29519 13.25 4.74449 13.2866 4.29693C13.3244 3.83367 13.4051 3.41527 13.6042 3.02453C13.9158 2.413 14.413 1.91582 15.0245 1.60423C15.4153 1.40514 15.8337 1.3244 16.2969 1.28655C16.7445 1.24998 17.2952 1.24999 17.9686 1.25ZM16.4191 2.78157C16.0486 2.81184 15.8496 2.86735 15.7055 2.94074C15.3762 3.10852 15.1085 3.37623 14.9407 3.70552C14.8673 3.84956 14.8118 4.04858 14.7816 4.41908C14.7506 4.79833 14.75 5.28756 14.75 6C14.75 6.71244 14.7506 7.20167 14.7816 7.58092C14.8118 7.95142 14.8673 8.15045 14.9407 8.29448C15.1085 8.62377 15.3762 8.89148 15.7055 9.05926C15.8496 9.13265 16.0486 9.18816 16.4191 9.21843C16.7983 9.24942 17.2876 9.25 18 9.25C18.7124 9.25 19.2017 9.24942 19.5809 9.21843C19.9514 9.18816 20.1504 9.13265 20.2945 9.05926C20.6238 8.89148 20.8915 8.62377 21.0593 8.29448C21.1327 8.15045 21.1882 7.95142 21.2184 7.58092C21.2494 7.20167 21.25 6.71244 21.25 6C21.25 5.28756 21.2494 4.79833 21.2184 4.41908C21.1882 4.04858 21.1327 3.84956 21.0593 3.70552C20.8915 3.37623 20.6238 3.10852 20.2945 2.94074C20.1504 2.86735 19.9514 2.81184 19.5809 2.78157C19.2017 2.75058 18.7124 2.75 18 2.75C17.2876 2.75 16.7983 2.75058 16.4191 2.78157ZM6 1.25H5.96858H5.96857C5.2952 1.24999 4.74449 1.24998 4.29693 1.28655C3.83367 1.3244 3.41527 1.40514 3.02453 1.60423C2.413 1.91582 1.91582 2.413 1.60423 3.02453C1.40514 3.41527 1.3244 3.83367 1.28655 4.29693C1.24998 4.74449 1.24999 5.2952 1.25 5.96857V5.96858V6V6.03142V6.03143C1.24999 6.7048 1.24998 7.25551 1.28655 7.70307C1.3244 8.16633 1.40514 8.58473 1.60423 8.97547C1.91582 9.587 2.413 10.0842 3.02453 10.3958C3.41527 10.5949 3.83367 10.6756 4.29693 10.7134C4.74448 10.75 5.29518 10.75 5.96853 10.75H5.96856H6H6.03144H6.03147C6.70483 10.75 7.25552 10.75 7.70307 10.7134C8.16633 10.6756 8.58473 10.5949 8.97547 10.3958C9.587 10.0842 10.0842 9.587 10.3958 8.97547C10.5949 8.58473 10.6756 8.16633 10.7134 7.70307C10.75 7.25552 10.75 6.70483 10.75 6.03147V6.03144V6V5.96856V5.96853C10.75 5.29518 10.75 4.74448 10.7134 4.29693C10.6756 3.83367 10.5949 3.41527 10.3958 3.02453C10.0842 2.413 9.587 1.91582 8.97547 1.60423C8.58473 1.40514 8.16633 1.3244 7.70307 1.28655C7.25551 1.24998 6.7048 1.24999 6.03143 1.25H6.03142H6ZM3.70552 2.94074C3.84956 2.86735 4.04858 2.81184 4.41908 2.78157C4.79833 2.75058 5.28756 2.75 6 2.75C6.71244 2.75 7.20167 2.75058 7.58092 2.78157C7.95142 2.81184 8.15045 2.86735 8.29448 2.94074C8.62377 3.10852 8.89148 3.37623 9.05926 3.70552C9.13265 3.84956 9.18816 4.04858 9.21843 4.41908C9.24942 4.79833 9.25 5.28756 9.25 6C9.25 6.71244 9.24942 7.20167 9.21843 7.58092C9.18816 7.95142 9.13265 8.15045 9.05926 8.29448C8.89148 8.62377 8.62377 8.89148 8.29448 9.05926C8.15045 9.13265 7.95142 9.18816 7.58092 9.21843C7.20167 9.24942 6.71244 9.25 6 9.25C5.28756 9.25 4.79833 9.24942 4.41908 9.21843C4.04858 9.18816 3.84956 9.13265 3.70552 9.05926C3.37623 8.89148 3.10852 8.62377 2.94074 8.29448C2.86735 8.15045 2.81184 7.95142 2.78157 7.58092C2.75058 7.20167 2.75 6.71244 2.75 6C2.75 5.28756 2.75058 4.79833 2.78157 4.41908C2.81184 4.04858 2.86735 3.84956 2.94074 3.70552C3.10852 3.37623 3.37623 3.10852 3.70552 2.94074ZM6 13.25H5.96858H5.96855C5.29519 13.25 4.74449 13.25 4.29693 13.2866C3.83367 13.3244 3.41527 13.4051 3.02453 13.6042C2.413 13.9158 1.91582 14.413 1.60423 15.0245C1.40514 15.4153 1.3244 15.8337 1.28655 16.2969C1.24998 16.7445 1.24999 17.2952 1.25 17.9686V18V18.0314C1.24999 18.7048 1.24998 19.2555 1.28655 19.7031C1.3244 20.1663 1.40514 20.5847 1.60423 20.9755C1.91582 21.587 2.413 22.0842 3.02453 22.3958C3.41527 22.5949 3.83367 22.6756 4.29693 22.7134C4.74449 22.75 5.29519 22.75 5.96856 22.75H6H6.03144C6.70481 22.75 7.25551 22.75 7.70307 22.7134C8.16633 22.6756 8.58473 22.5949 8.97547 22.3958C9.587 22.0842 10.0842 21.587 10.3958 20.9755C10.5949 20.5847 10.6756 20.1663 10.7134 19.7031C10.75 19.2555 10.75 18.7048 10.75 18.0315V18.0314V18V17.9686V17.9685C10.75 17.2952 10.75 16.7445 10.7134 16.2969C10.6756 15.8337 10.5949 15.4153 10.3958 15.0245C10.0842 14.413 9.587 13.9158 8.97547 13.6042C8.58473 13.4051 8.16633 13.3244 7.70307 13.2866C7.25551 13.25 6.70482 13.25 6.03145 13.25H6.03142H6ZM3.70552 14.9407C3.84956 14.8673 4.04858 14.8118 4.41908 14.7816C4.79833 14.7506 5.28756 14.75 6 14.75C6.71244 14.75 7.20167 14.7506 7.58092 14.7816C7.95142 14.8118 8.15045 14.8673 8.29448 14.9407C8.62377 15.1085 8.89148 15.3762 9.05926 15.7055C9.13265 15.8496 9.18816 16.0486 9.21843 16.4191C9.24942 16.7983 9.25 17.2876 9.25 18C9.25 18.7124 9.24942 19.2017 9.21843 19.5809C9.18816 19.9514 9.13265 20.1504 9.05926 20.2945C8.89148 20.6238 8.62377 20.8915 8.29448 21.0593C8.15045 21.1327 7.95142 21.1882 7.58092 21.2184C7.20167 21.2494 6.71244 21.25 6 21.25C5.28756 21.25 4.79833 21.2494 4.41908 21.2184C4.04858 21.1882 3.84956 21.1327 3.70552 21.0593C3.37623 20.8915 3.10852 20.6238 2.94074 20.2945C2.86735 20.1504 2.81184 19.9514 2.78157 19.5809C2.75058 19.2017 2.75 18.7124 2.75 18C2.75 17.2876 2.75058 16.7983 2.78157 16.4191C2.81184 16.0486 2.86735 15.8496 2.94074 15.7055C3.10852 15.3762 3.37623 15.1085 3.70552 14.9407ZM18 13.25H17.9686H17.9685C17.2952 13.25 16.7445 13.25 16.2969 13.2866C15.8337 13.3244 15.4153 13.4051 15.0245 13.6042C14.413 13.9158 13.9158 14.413 13.6042 15.0245C13.4051 15.4153 13.3244 15.8337 13.2866 16.2969C13.25 16.7445 13.25 17.2952 13.25 17.9685V17.9686V18V18.0314V18.0315C13.25 18.7048 13.25 19.2555 13.2866 19.7031C13.3244 20.1663 13.4051 20.5847 13.6042 20.9755C13.9158 21.587 14.413 22.0842 15.0245 22.3958C15.4153 22.5949 15.8337 22.6756 16.2969 22.7134C16.7445 22.75 17.2952 22.75 17.9686 22.75H18H18.0314C18.7048 22.75 19.2555 22.75 19.7031 22.7134C20.1663 22.6756 20.5847 22.5949 20.9755 22.3958C21.587 22.0842 22.0842 21.587 22.3958 20.9755C22.5949 20.5847 22.6756 20.1663 22.7134 19.7031C22.75 19.2555 22.75 18.7048 22.75 18.0314V18V17.9686C22.75 17.2952 22.75 16.7445 22.7134 16.2969C22.6756 15.8337 22.5949 15.4153 22.3958 15.0245C22.0842 14.413 21.587 13.9158 20.9755 13.6042C20.5847 13.4051 20.1663 13.3244 19.7031 13.2866C19.2555 13.25 18.7048 13.25 18.0315 13.25H18.0314H18ZM15.7055 14.9407C15.8496 14.8673 16.0486 14.8118 16.4191 14.7816C16.7983 14.7506 17.2876 14.75 18 14.75C18.7124 14.75 19.2017 14.7506 19.5809 14.7816C19.9514 14.8118 20.1504 14.8673 20.2945 14.9407C20.6238 15.1085 20.8915 15.3762 21.0593 15.7055C21.1327 15.8496 21.1882 16.0486 21.2184 16.4191C21.2494 16.7983 21.25 17.2876 21.25 18C21.25 18.7124 21.2494 19.2017 21.2184 19.5809C21.1882 19.9514 21.1327 20.1504 21.0593 20.2945C20.8915 20.6238 20.6238 20.8915 20.2945 21.0593C20.1504 21.1327 19.9514 21.1882 19.5809 21.2184C19.2017 21.2494 18.7124 21.25 18 21.25C17.2876 21.25 16.7983 21.2494 16.4191 21.2184C16.0486 21.1882 15.8496 21.1327 15.7055 21.0593C15.3762 20.8915 15.1085 20.6238 14.9407 20.2945C14.8673 20.1504 14.8118 19.9514 14.7816 19.5809C14.7506 19.2017 14.75 18.7124 14.75 18C14.75 17.2876 14.7506 16.7983 14.7816 16.4191C14.8118 16.0486 14.8673 15.8496 14.9407 15.7055C15.1085 15.3762 15.3762 15.1085 15.7055 14.9407Z"
        fill="currentColor"
      />
    </symbol>
    <symbol id="figma" viewBox="0 0 24 24">
      <path fill-rule="evenodd" clip-rule="evenodd" d="M9 4C7.89543 4 7 4.89543 7 6C7 7.10457 7.89543 8 9 8H11V4H9ZM13 4V8H15C16.1046 8 17 7.10458 17 6C17 4.89542 16.1046 4 15 4H13ZM17.6458 9.00001C18.4763 8.26706 19 7.19469 19 6C19 3.79088 17.2092 2 15 2H12H9C6.79087 2 5 3.79087 5 6C5 7.19469 5.52375 8.26705 6.35417 8.99999C5.52375 9.73293 5 10.8053 5 12C5 13.1947 5.52375 14.2671 6.35416 15C5.52375 15.7329 5 16.8053 5 18C5 20.2092 6.79088 22 9 22C11.2092 22 13 20.2092 13 18V15.4649C13.5883 15.8052 14.2714 16 15 16C17.2091 16 19 14.2091 19 12C19 10.8053 18.4762 9.73295 17.6458 9.00001ZM15 10C13.8954 10 13 10.8954 13 12C13 13.1046 13.8954 14 15 14C16.1046 14 17 13.1046 17 12C17 10.8954 16.1046 10 15 10ZM7 12C7 10.8954 7.89542 10 9 10H11V12V14H9C7.89542 14 7 13.1046 7 12ZM11 16H9C7.89542 16 7 16.8954 7 18C7 19.1046 7.89542 20 9 20C10.1046 20 11 19.1046 11 18V16Z" fill="currentColor"/>
    </symbol>
    <symbol id="sketch" viewBox="0 0 24 24">
      <path
        fill-rule="evenodd"
        clip-rule="evenodd"
        d="M12 2C11.9379 2 11.8766 2.00576 11.8166 2.01695L6.32112 3.01613C6.08741 3.05862 5.87646 3.18292 5.72604 3.36676L1.23663 8.85382C0.936286 9.20775 0.918002 9.72972 1.20374 10.105C1.2188 10.1248 1.23455 10.144 1.25096 10.1626L11.2394 21.6493C11.4263 21.8682 11.7026 22 12 22C12.1742 22 12.3411 21.9548 12.4871 21.8734C12.5543 21.8359 12.617 21.7907 12.674 21.7387C12.7046 21.7108 12.7336 21.6809 12.7607 21.6492L22.7491 10.1625C22.7655 10.144 22.7812 10.1248 22.7963 10.105C22.9292 9.93045 22.9963 9.72415 22.9999 9.51778C23.0008 9.46571 22.9976 9.41369 22.9905 9.36221C22.965 9.17873 22.8888 9.00163 22.7634 8.85384L18.274 3.36676C18.1235 3.18292 17.9126 3.05862 17.6789 3.01613L12.1834 2.01696C12.1235 2.00577 12.0621 2 12 2ZM19.8052 10.5H17.6556L15.5061 15.4441L19.8052 10.5ZM8.49395 15.4441L6.34435 10.5H4.19476L8.49395 15.4441ZM7.57869 4.82027L9.62425 4.44835L7.76465 6.86583L7.57869 4.82027ZM12 18.492L8.52521 10.5H15.4748L12 18.492ZM12 4.64012L9.03086 8.5H14.9691L12 4.64012ZM16.4213 4.82027L16.2353 6.86583L14.3757 4.44835L16.4213 4.82027ZM5.7255 6.5258L4.11024 8.5H5.90497L5.7255 6.5258ZM18.2745 6.5258L19.8898 8.5H18.095L18.2745 6.5258Z"
        fill="currentColor"
      />
    </symbol>
    <symbol id="adobeXD" viewBox="0 0 24 24">
       <path
        fill-rule="evenodd"
        clip-rule="evenodd"
        d="M6.78014 19.8348C7.97746 19.9958 9.58644 20 12 20C14.4136 20 16.0225 19.9958 17.2199 19.8348C18.3597 19.6815 18.8226 19.42 19.1213 19.1213C19.42 18.8226 19.6815 18.3597 19.8348 17.2199C19.9958 16.0225 20 14.4136 20 12C20 9.58644 19.9958 7.97746 19.8348 6.78014C19.6815 5.64034 19.42 5.17737 19.1213 4.87868C18.8226 4.57998 18.3597 4.31846 17.2199 4.16522C16.0225 4.00425 14.4136 4 12 4C9.58644 4 7.97746 4.00425 6.78014 4.16522C5.64034 4.31846 5.17737 4.57998 4.87868 4.87868C4.57998 5.17737 4.31846 5.64034 4.16522 6.78014C4.00425 7.97746 4 9.58644 4 12C4 14.4136 4.00425 16.0225 4.16522 17.2199C4.31846 18.3597 4.57998 18.8226 4.87868 19.1213C5.17737 19.42 5.64034 19.6815 6.78014 19.8348ZM3.46447 3.46447C2 4.92893 2 7.28595 2 12C2 16.714 2 19.0711 3.46447 20.5355C4.92893 22 7.28595 22 12 22C16.714 22 19.0711 22 20.5355 20.5355C22 19.0711 22 16.714 22 12C22 7.28595 22 4.92893 20.5355 3.46447C19.0711 2 16.714 2 12 2C7.28595 2 4.92893 2 3.46447 3.46447ZM5.4 7.2C5.84183 6.86863 6.46863 6.95817 6.8 7.4L9 10.3333L11.2 7.4C11.5314 6.95817 12.1582 6.86863 12.6 7.2C13.0418 7.53137 13.1314 8.15817 12.8 8.6L10.25 12L12.8 15.4C13.1314 15.8418 13.0418 16.4686 12.6 16.8C12.1582 17.1314 11.5314 17.0418 11.2 16.6L9 13.6667L6.8 16.6C6.46863 17.0418 5.84183 17.1314 5.4 16.8C4.95817 16.4686 4.86863 15.8418 5.2 15.4L7.75 12L5.2 8.6C4.86863 8.15817 4.95817 7.53137 5.4 7.2ZM19 8C19 7.44772 18.5523 7 18 7C17.4477 7 17 7.44772 17 8V10H16.5C14.567 10 13 11.567 13 13.5C13 15.433 14.567 17 16.5 17C16.5582 17 16.6226 17.0006 16.6899 17.0011C16.8554 17.0026 17.0386 17.0041 17.1898 16.998C17.4077 16.9891 17.7205 16.9627 18.0251 16.8271C18.3789 16.6697 18.6557 16.3966 18.8196 16.0233C18.9638 15.6946 19 15.3349 19 15V11V8ZM16.5 12H17V15L17 15.0022C16.9563 15.0026 16.9078 15.0026 16.8527 15.0023L16.7473 15.0014C16.6704 15.0008 16.5842 15 16.5 15C15.6716 15 15 14.3284 15 13.5C15 12.6716 15.6716 12 16.5 12Z"
        fill="currentColor"
      />
    </symbol>
    <symbol id="photoShop" viewBox="0 0 24 24">
      <path
        fill-rule="evenodd"
        clip-rule="evenodd"
        d="M6.78014 19.8348C7.97746 19.9958 9.58644 20 12 20C14.4136 20 16.0225 19.9958 17.2199 19.8348C18.3597 19.6815 18.8226 19.42 19.1213 19.1213C19.42 18.8226 19.6815 18.3597 19.8348 17.2199C19.9958 16.0225 20 14.4136 20 12C20 9.58644 19.9958 7.97746 19.8348 6.78014C19.6815 5.64034 19.42 5.17737 19.1213 4.87868C18.8226 4.57998 18.3597 4.31846 17.2199 4.16522C16.0225 4.00425 14.4136 4 12 4C9.58644 4 7.97746 4.00425 6.78014 4.16522C5.64034 4.31846 5.17737 4.57998 4.87868 4.87868C4.57998 5.17737 4.31846 5.64034 4.16522 6.78014C4.00425 7.97746 4 9.58644 4 12C4 14.4136 4.00425 16.0225 4.16522 17.2199C4.31846 18.3597 4.57998 18.8226 4.87868 19.1213C5.17737 19.42 5.64034 19.6815 6.78014 19.8348ZM3.46447 3.46447C2 4.92893 2 7.28595 2 12C2 16.714 2 19.0711 3.46447 20.5355C4.92893 22 7.28595 22 12 22C16.714 22 19.0711 22 20.5355 20.5355C22 19.0711 22 16.714 22 12C22 7.28595 22 4.92893 20.5355 3.46447C19.0711 2 16.714 2 12 2C7.28595 2 4.92893 2 3.46447 3.46447ZM13.4858 9.63936C14.0368 9.22606 14.7522 9 15.5 9C16.7546 9 18.1127 9.68366 18.4361 10.9806C18.5697 11.5164 18.2436 12.0592 17.7077 12.1928C17.1719 12.3264 16.6291 12.0003 16.4955 11.4644C16.4719 11.3697 16.2018 11 15.5 11C15.1432 11 14.8586 11.1097 14.6858 11.2393C14.5133 11.3687 14.5 11.4711 14.5 11.5C14.5 11.5289 14.5133 11.6313 14.6858 11.7607C14.8586 11.8903 15.1432 12 15.5 12C16.2478 12 16.9632 12.2261 17.5142 12.6394C18.0656 13.0529 18.5 13.7005 18.5 14.5C18.5 15.2995 18.0656 15.9471 17.5142 16.3606C16.9632 16.7739 16.2478 17 15.5 17C14.2419 17 12.8771 16.3116 12.5604 15.0056C12.4303 14.4689 12.76 13.9283 13.2967 13.7982C13.8334 13.668 14.374 13.9977 14.5042 14.5344C14.5267 14.6276 14.7947 15 15.5 15C15.8568 15 16.1414 14.8903 16.3142 14.7607C16.4867 14.6313 16.5 14.5289 16.5 14.5C16.5 14.4711 16.4867 14.3687 16.3142 14.2393C16.1414 14.1097 15.8568 14 15.5 14C14.7522 14 14.0368 13.7739 13.4858 13.3606C12.9344 12.9471 12.5 12.2995 12.5 11.5C12.5 10.7005 12.9344 10.0529 13.4858 9.63936ZM7.5 7C6.39543 7 5.5 7.89543 5.5 9V12V16C5.5 16.5523 5.94772 17 6.5 17C7.05228 17 7.5 16.5523 7.5 16V13H9C10.6569 13 12 11.6569 12 10C12 8.34315 10.6569 7 9 7H7.5ZM9 11H7.5V9H9C9.55228 9 10 9.44772 10 10C10 10.5523 9.55228 11 9 11Z"
        fill="currentColor"
      />
    </symbol>
    <symbol id="afterEffect" viewBox="0 0 24 24">
      <path
        fill-rule="evenodd"
        clip-rule="evenodd"
        d="M6.78014 19.8348C7.97746 19.9958 9.58644 20 12 20C14.4136 20 16.0225 19.9958 17.2199 19.8348C18.3597 19.6815 18.8226 19.42 19.1213 19.1213C19.42 18.8226 19.6815 18.3597 19.8348 17.2199C19.9958 16.0225 20 14.4136 20 12C20 9.58644 19.9958 7.97746 19.8348 6.78014C19.6815 5.64034 19.42 5.17737 19.1213 4.87868C18.8226 4.57998 18.3597 4.31846 17.2199 4.16522C16.0225 4.00425 14.4136 4 12 4C9.58644 4 7.97746 4.00425 6.78014 4.16522C5.64034 4.31846 5.17737 4.57998 4.87868 4.87868C4.57998 5.17737 4.31846 5.64034 4.16522 6.78014C4.00425 7.97746 4 9.58644 4 12C4 14.4136 4.00425 16.0225 4.16522 17.2199C4.31846 18.3597 4.57998 18.8226 4.87868 19.1213C5.17737 19.42 5.64034 19.6815 6.78014 19.8348ZM3.46447 3.46447C2 4.92893 2 7.28595 2 12C2 16.714 2 19.0711 3.46447 20.5355C4.92893 22 7.28595 22 12 22C16.714 22 19.0711 22 20.5355 20.5355C22 19.0711 22 16.714 22 12C22 7.28595 22 4.92893 20.5355 3.46447C19.0711 2 16.714 2 12 2C7.28595 2 4.92893 2 3.46447 3.46447ZM9 9.4801L8.24403 12H9.75597L9 9.4801ZM10.356 14L11.0422 16.2873C11.2009 16.8163 11.7584 17.1165 12.2873 16.9578C12.8163 16.7991 13.1165 16.2416 12.9578 15.7127L10.4367 7.30903C10.0091 5.88372 7.99085 5.88373 7.56326 7.30903L5.04217 15.7127C4.88348 16.2416 5.18366 16.7991 5.71265 16.9578C6.24164 17.1165 6.79913 16.8163 6.95783 16.2873L7.64403 14H10.356ZM18 13.8696H15V14C15 14.5523 15.4477 15 16 15C16.3701 15 16.6947 14.7994 16.8687 14.496C17.1435 14.017 17.7546 13.8514 18.2337 14.1262C18.7127 14.401 18.8783 15.0121 18.6035 15.4912C18.0877 16.3904 17.1157 17 16 17C14.3431 17 13 15.6569 13 14V12.8696V12C13 10.3431 14.3431 9 16 9C17.6569 9 19 10.3431 19 12V12.8696C19 13.4219 18.5523 13.8696 18 13.8696ZM15.0084 11.8696C15.0723 11.3789 15.4919 11 16 11C16.5081 11 16.9277 11.3789 16.9916 11.8696H15.0084Z"
        fill="currentColor"
      />
    </symbol>
</svg>
